<?xml version="1.0" standalone="no"?>
<!DOCTYPE svg PUBLIC "-//W3C//DTD SVG 20010904//EN"
 "http://www.w3.org/TR/2001/REC-SVG-20010904/DTD/svg10.dtd">
<svg version="1.0" xmlns="http://www.w3.org/2000/svg"
 width="500.000000pt" height="500.000000pt" viewBox="0 0 500.000000 500.000000"
 preserveAspectRatio="xMidYMid meet">
<metadata>
Created by potrace 1.14, written by Peter Selinger 2001-2017
</metadata>
<g transform="translate(0.000000,500.000000) scale(0.100000,-0.100000)"
fill="#000000" stroke="none">
<path d="M1719 3083 c-1 -5 -1 -11 0 -15 0 -5 -3 -8 -9 -8 -10 0 -50 -36 -50
-45 0 -3 -10 -16 -22 -29 -13 -12 -50 -58 -83 -100 -33 -43 -73 -95 -90 -115
-16 -21 -41 -53 -55 -71 -14 -18 -34 -42 -44 -52 -11 -10 -17 -18 -13 -18 3 0
-5 -12 -20 -27 -14 -16 -39 -48 -56 -73 -17 -25 -36 -50 -42 -57 -29 -35 -35
-43 -35 -52 0 -5 -4 -11 -9 -13 -4 -1 -40 -46 -79 -98 -79 -107 -101 -135
-120 -156 -7 -8 -10 -14 -5 -14 4 0 3 -4 -3 -8 -6 -4 -37 -43 -69 -87 -32 -44
-64 -83 -69 -87 -6 -4 -8 -8 -4 -8 9 0 -91 -134 -103 -138 -5 -2 -9 -8 -9 -14
0 -6 -10 -22 -22 -37 -13 -15 -32 -40 -43 -56 -11 -15 -28 -36 -37 -47 -10
-10 -18 -22 -18 -28 0 -5 -3 -10 -8 -10 -4 0 -18 -18 -32 -40 -14 -22 -28 -40
-32 -40 -4 0 -14 -12 -22 -27 -8 -16 -23 -37 -33 -48 -10 -11 -40 -49 -67 -85
-27 -36 -53 -66 -58 -68 -4 -2 -8 -9 -8 -16 0 -7 -11 -23 -25 -36 -14 -13 -25
-28 -25 -33 0 -5 -10 -18 -22 -28 -11 -11 -18 -19 -14 -19 4 0 1 -6 -6 -13 -7
-8 -35 -44 -63 -81 -27 -37 -59 -78 -70 -91 -12 -13 -32 -38 -45 -56 -14 -17
-37 -46 -52 -63 l-28 -31 0 -422 0 -423 2500 0 2500 0 0 443 0 442 -41 50
c-22 28 -45 57 -52 65 -34 42 -143 176 -152 186 -11 12 -20 22 -241 284 -218
259 -346 406 -454 519 -19 20 -51 55 -70 77 -19 21 -78 86 -131 144 -53 58
-104 118 -114 133 -41 64 -46 60 -151 -110 -53 -87 -111 -180 -129 -208 -18
-27 -76 -122 -130 -210 -54 -88 -111 -179 -128 -203 l-29 -43 -26 29 c-15 17
-92 99 -172 183 -80 84 -161 169 -180 190 -55 58 -301 319 -340 359 -19 20
-96 101 -170 180 -156 165 -158 168 -346 366 -78 82 -154 164 -170 182 -27 30
-52 42 -55 25z"/>
</g>
</svg>
